<svg width="41" height="41" viewBox="0 0 41 41" fill="none" xmlns="http://www.w3.org/2000/svg">
<g clip-path="url(#clip0_1_198)">
<path d="M19.3051 41C18.5242 40.8908 17.7432 40.8127 16.9779 40.6879C12.2609 39.8451 8.30933 37.6289 5.13866 34.0548C2.23352 30.7773 0.546659 26.9536 0.109326 22.5992C-0.421722 17.2303 0.937136 12.3765 4.21714 8.08453C7.29409 4.05789 11.3394 1.51392 16.2907 0.437027C19.4457 -0.249688 22.6008 -0.140438 25.7246 0.671134C25.787 0.686741 25.8495 0.717955 25.9276 0.74917C25.9276 1.98213 25.9276 3.19949 25.9276 4.43246C19.3988 2.57521 13.5573 3.76135 8.65295 8.49032C5.1699 11.8615 3.49866 16.0754 3.60799 20.9292C3.82666 30.5432 12.136 38.0191 21.5855 37.3479C27.0834 36.9578 31.4411 34.4294 34.5181 29.8877C37.595 25.346 38.1261 20.3674 36.5486 15.1078C37.7981 15.1078 39.032 15.1078 40.3596 15.1078C40.547 16.3095 40.7345 17.5425 40.9219 18.7598C40.9531 18.9471 40.9688 19.1188 41 19.3061C41 20.102 41 20.9136 41 21.7096C40.9688 21.9905 40.9375 22.287 40.9063 22.568C40.4221 26.9848 38.7352 30.871 35.752 34.1641C32.5969 37.6601 28.6766 39.8451 24.0221 40.6723C23.2568 40.8127 22.4758 40.8908 21.6948 40.9844C20.8983 41 20.1017 41 19.3051 41Z" fill="white"/>
<path d="M21.6792 20.0551C21.2419 19.5869 20.7265 19.1811 20.3829 18.6505C19.2583 16.9337 20.0392 14.6863 22.0229 13.9059C23.8347 13.188 25.6621 13.1568 27.4895 13.8279C28.8484 14.3273 29.7074 15.2637 29.848 16.7308C29.9886 18.1043 29.4263 19.1655 28.2549 19.9147C28.2392 19.9303 28.2236 19.9459 28.1611 19.9927C28.3954 20.1332 28.6141 20.2424 28.8328 20.3829C31.3162 22.0373 31.16 25.424 28.5204 26.8287C27.1147 27.5778 25.5996 27.687 24.0377 27.5778C23.1006 27.5154 22.1947 27.3281 21.3356 26.9067C19.9768 26.22 19.1333 25.1587 19.149 23.598C19.1646 22.006 20.008 20.8979 21.3981 20.18C21.5074 20.1332 21.6011 20.0864 21.6792 20.0551C21.7261 20.0083 21.7105 20.0395 21.6792 20.0551ZM24.8811 25.1119C25.3185 25.0182 25.7402 24.987 26.1307 24.8465C26.8804 24.6124 27.2552 24.035 27.2709 23.239C27.2865 22.4743 26.896 21.8656 26.1619 21.6159C25.3341 21.3193 24.4907 21.3193 23.6472 21.6003C22.8975 21.85 22.5071 22.4274 22.5071 23.2078C22.5071 23.9881 22.8819 24.5812 23.6316 24.8309C24.0221 24.987 24.4594 25.0338 24.8811 25.1119ZM24.8968 18.8846C25.1935 18.8378 25.5059 18.8066 25.8027 18.7285C26.5055 18.5256 26.8804 18.0262 26.896 17.3239C26.9116 16.606 26.5368 16.0753 25.8495 15.8412C25.2248 15.6227 24.5844 15.6383 23.9596 15.8256C23.2255 16.0597 22.8507 16.5748 22.8819 17.3551C22.8975 18.073 23.288 18.5569 24.0221 18.7441C24.3032 18.8222 24.6 18.8378 24.8968 18.8846Z" fill="white"/>
<path d="M10.4179 16.372C10.4179 15.3887 10.4179 14.4679 10.4179 13.5315C12.4484 13.5315 14.4476 13.5315 16.4781 13.5315C16.4781 18.1824 16.4781 22.8021 16.4781 27.4531C15.3067 27.4531 14.1509 27.4531 12.9794 27.4531C12.9794 23.7542 12.9794 20.0865 12.9794 16.372C12.1204 16.372 11.2926 16.372 10.4179 16.372Z" fill="white"/>
<path d="M35.4865 8.31874C35.4865 9.66096 35.4865 10.9251 35.4865 12.2361C34.5493 12.2361 33.6278 12.2361 32.6907 12.2361C32.6907 10.9564 32.6907 9.67657 32.6907 8.34996C31.3787 8.34996 30.0979 8.34996 28.7859 8.34996C28.7859 7.38231 28.7859 6.4771 28.7859 5.52506C30.0667 5.52506 31.3474 5.52506 32.675 5.52506C32.675 4.19845 32.675 2.91867 32.675 1.60767C33.6434 1.60767 34.5493 1.60767 35.5021 1.60767C35.5021 2.90306 35.5021 4.18285 35.5021 5.50945C36.8297 5.50945 38.1105 5.50945 39.4068 5.50945C39.4068 6.4771 39.4068 7.38231 39.4068 8.33435C38.0948 8.31874 36.8297 8.31874 35.4865 8.31874Z" fill="white"/>
</g>
<defs>
<clipPath id="clip0_1_198">
<rect width="41" height="41" fill="white"/>
</clipPath>
</defs>
</svg>
