<svg width="52" height="44" viewBox="0 0 52 44" fill="none" xmlns="http://www.w3.org/2000/svg">
<path d="M1.09483 11.5497L1.09574 11.542L1.09654 11.5344C1.31329 9.44345 1.88414 7.54393 3.05046 5.85767C4.73214 3.43224 7.10535 2.00192 10.0573 1.39373L10.0576 1.39367C12.4548 0.898964 14.7695 0.807748 17.0395 1.49681C18.8741 2.05374 20.5126 3.02475 22.0879 4.21459L22.0887 4.21519C22.8334 4.77651 23.549 5.36109 24.2726 5.95227C24.6368 6.24981 25.0031 6.54903 25.3762 6.84778L26.0029 7.34973L26.6284 6.84616C26.9314 6.60218 27.2319 6.3584 27.5315 6.11536C28.3412 5.45858 29.1441 4.80725 29.9716 4.17231L29.9716 4.17233L29.9774 4.16782C33.458 1.4563 37.3009 0.415448 41.6627 1.31787C44.7587 1.96931 47.2316 3.35108 48.9631 5.86775L48.9649 5.87042C50.0583 7.44871 50.6171 9.2426 50.8705 11.2193L50.8713 11.2248C51.2044 13.7129 50.8958 16.0775 49.8899 18.3781C48.6484 21.1958 46.7323 23.578 44.4617 25.7446L44.4608 25.7454C40.2691 29.7546 36.0584 33.7503 31.8499 37.7439C30.1921 39.3171 28.5345 40.8899 26.8787 42.4632L26.8774 42.4644C26.3767 42.9417 26.1178 42.9996 26.0045 43C25.8915 43.0004 25.6345 42.9445 25.1351 42.4743C19.3543 36.9849 13.5756 31.4973 7.82252 25.9847C6.89068 25.0899 5.99603 24.146 5.1512 23.1655C3.20776 20.9004 1.83215 18.3636 1.20925 15.4906C1.13914 15.1218 1.06953 14.7553 1 14.3797V14.3771V14.3723V14.3676V14.3629V14.3582V14.3535V14.3488V14.3441V14.3394V14.3347V14.3299V14.3252V14.3205V14.3158V14.3111V14.3064V14.3017V14.297V14.2923V14.2876V14.2828V14.2781V14.2734V14.2687V14.264V14.2593V14.2546V14.2499V14.2452V14.2404V14.2357V14.231V14.2263V14.2216V14.2169V14.2122V14.2075V14.2028V14.1981V14.1933V14.1886V14.1839V14.1792V14.1745V14.1698V14.1651V14.1604V14.1557V14.151V14.1463V14.1415V14.1368V14.1321V14.1274V14.1227V14.118V14.1133V14.1086V14.1039V14.0992V14.0945V14.0897V14.085V14.0803V14.0756V14.0709V14.0662V14.0615V14.0568V14.0521V14.0474V14.0427V14.0379V14.0332V14.0285V14.0238V14.0191V14.0144V14.0097V14.005V14.0003V13.9956V13.9909V13.9862V13.9815V13.9767V13.972V13.9673V13.9626V13.9579V13.9532V13.9485V13.9438V13.9391V13.9344V13.9297V13.925V13.9203V13.9155V13.9108V13.9061V13.9014V13.8967V13.892V13.8873V13.8826V13.8779V13.8732V13.8685V13.8638V13.8591V13.8544V13.8497V13.845V13.8402V13.8355V13.8308V13.8261V13.8214V13.8167V13.812V13.8073V13.8026V13.7979V13.7932V13.7885V13.7838V13.7791V13.7744V13.7697V13.765V13.7603V13.7556V13.7509V13.7461V13.7414V13.7367V13.732V13.7273V13.7226V13.7179V13.7132V13.7085V13.7038V13.6991V13.6944V13.6897V13.685V13.6803V13.6756V13.6709V13.6662V13.6615V13.6568V13.6521V13.6474V13.6427V13.638V13.6333V13.6286V13.6239V13.6192V13.6145V13.6098V13.6051V13.6004V13.5957V13.591V13.5863V13.5816V13.5769V13.5722V13.5675V13.5628V13.5581V13.5534V13.5487V13.544V13.5393V13.5346V13.5299V13.5252V13.5205V13.5158V13.5111V13.5064V13.5017V13.497V13.4923V13.4876V13.4829V13.4782V13.4735V13.4688V13.4641V13.4594V13.4547V13.45V13.4453V13.4406V13.4359V13.4312V13.4265V13.4218V13.4171V13.4124V13.4077V13.403V13.3983V13.3936V13.3889V13.3842V13.3795V13.3748V13.3701V13.3654V13.3608V13.3561V13.3514V13.3467V13.342V13.3373V13.3326V13.3279V13.3232V13.3185V13.3138V13.3091V13.3044V13.2997V13.295V13.2903V13.2856V13.281V13.2763V13.2716V13.2669V13.2622V13.2575V13.2528V13.2481V13.2434V13.2387V13.234V13.2293V13.2247V13.22V13.2153V13.2106V13.2059V13.2012V13.1965V13.1918V13.1871V13.1824V13.1777V13.1731V13.1684V13.1637V13.159V13.1543V13.1496V13.1449V13.1402V13.1355V13.1309V13.1262V13.1215V13.1168V13.1121V13.1074V13.1027V13.098V13.0934V13.0887V13.084V13.0793V13.0746V13.0699V13.0652V13.0606V13.0559V13.0512V13.0465V13.0418V13.0371V13.0324V13.0278V13.0231V13.0184V13.0137V13.009V13.0043V12.9997V12.995V12.9903V12.9856V12.9809V12.9762V12.9716V12.9669V12.9622V12.9575V12.9528V12.9482V12.9435V12.9388V12.9341V12.9294V12.9248V12.9201V12.9154V12.9107V12.906V12.9014V12.8967V12.892V12.8873V12.8826V12.878V12.8733V12.8686V12.8639V12.8592V12.8546V12.8499V12.8452V12.8405V12.8359V12.8312V12.8265V12.8218V12.8172V12.8125V12.8078V12.8031V12.7985V12.7938V12.7891V12.7844V12.7798V12.7751V12.7704V12.7657V12.7611V12.7564V12.7517V12.747V12.7424V12.7377V12.733V12.7283V12.7237V12.719V12.7143V12.7097V12.705V12.7003V12.6956V12.691V12.6863V12.6816V12.677V12.6723V12.6676V12.663V12.6583V12.6536V12.649V12.6443V12.6396V12.6349V12.6303V12.6256V12.6209V12.6163V12.6116V12.6069V12.6023V12.5976V12.5929V12.5883V12.5836V12.5789V12.5743V12.5696V12.565V12.5603V12.5556V12.551V12.5463V12.5416V12.537V12.5323V12.5276V12.523V12.5183V12.5137V12.509V12.5043V12.4997V12.495V12.4904V12.4857V12.481V12.4764V12.4717V12.4671V12.4624V12.4577V12.4531V12.4484V12.4438V12.4391V12.4344V12.4298V12.4251V12.4205V12.4158V12.4112V12.4065V12.4018V12.3972V12.3925V12.3879V12.3832V12.3786V12.3739V12.3693V12.3646V12.3599V12.3553V12.3506V12.346V12.3413V12.3367V12.332V12.3274V12.3227V12.3181V12.3134V12.3088V12.3041V12.2995V12.2948V12.2902V12.2855V12.2809V12.2762V12.2716V12.2669V12.2623V12.2576V12.253V12.2483V12.2437V12.239V12.2344V12.2297V12.2251V12.2204V12.2158V12.2112V12.2065V12.2019V12.1972V12.1926V12.1879V12.1833V12.1786V12.174V12.1694V12.1647V12.1605C1.03337 11.973 1.06937 11.7632 1.09483 11.5497Z" fill="#0C0C0D" stroke="#D8A65D" stroke-width="2"/>
</svg>
