<svg width="29" height="29" viewBox="0 0 29 29" fill="none" xmlns="http://www.w3.org/2000/svg">
<path d="M14.5 7.625C13.1403 7.625 11.811 8.02821 10.6805 8.78365C9.54987 9.53908 8.66868 10.6128 8.14833 11.8691C7.62798 13.1253 7.49183 14.5076 7.7571 15.8412C8.02237 17.1749 8.67715 18.3999 9.63864 19.3614C10.6001 20.3228 11.8251 20.9776 13.1588 21.2429C14.4924 21.5082 15.8747 21.372 17.1309 20.8517C18.3872 20.3313 19.4609 19.4501 20.2164 18.3195C20.9718 17.189 21.375 15.8597 21.375 14.5C21.375 12.6766 20.6507 10.928 19.3614 9.63864C18.072 8.34933 16.3234 7.625 14.5 7.625V7.625ZM14.5 18.625C13.6842 18.625 12.8866 18.3831 12.2083 17.9298C11.5299 17.4766 11.0012 16.8323 10.689 16.0786C10.3768 15.3248 10.2951 14.4954 10.4543 13.6953C10.6134 12.8951 11.0063 12.1601 11.5832 11.5832C12.1601 11.0063 12.8951 10.6134 13.6953 10.4543C14.4954 10.2951 15.3248 10.3768 16.0786 10.689C16.8323 11.0012 17.4766 11.5299 17.9298 12.2083C18.3831 12.8866 18.625 13.6842 18.625 14.5C18.625 15.594 18.1904 16.6432 17.4168 17.4168C16.6432 18.1904 15.594 18.625 14.5 18.625ZM21.375 6.25C21.1031 6.25 20.8372 6.33064 20.6111 6.48173C20.385 6.63282 20.2087 6.84756 20.1047 7.09881C20.0006 7.35006 19.9734 7.62653 20.0264 7.89325C20.0795 8.15997 20.2104 8.40497 20.4027 8.59727C20.595 8.78957 20.84 8.92053 21.1067 8.97358C21.3735 9.02663 21.6499 8.9994 21.9012 8.89533C22.1524 8.79126 22.3672 8.61503 22.5183 8.38891C22.6694 8.16279 22.75 7.89695 22.75 7.625C22.75 7.26033 22.6051 6.91059 22.3473 6.65273C22.0894 6.39487 21.7397 6.25 21.375 6.25ZM28.1675 9.33C28.1447 8.15496 27.9215 6.99243 27.5075 5.8925C27.1236 4.89159 26.5334 3.98261 25.7754 3.22458C25.0174 2.46656 24.1084 1.87642 23.1075 1.4925C22.0076 1.07849 20.845 0.85528 19.67 0.8325C18.3363 0.75 17.8963 0.75 14.5 0.75C11.1037 0.75 10.6637 0.75 9.33 0.8325C8.15496 0.85528 6.99243 1.07849 5.8925 1.4925C4.89159 1.87642 3.98261 2.46656 3.22458 3.22458C2.46656 3.98261 1.87642 4.89159 1.4925 5.8925C1.07849 6.99243 0.85528 8.15496 0.8325 9.33C0.75 10.6775 0.75 11.1175 0.75 14.5C0.75 17.8825 0.75 18.3225 0.8325 19.67C0.85528 20.845 1.07849 22.0076 1.4925 23.1075C1.87642 24.1084 2.46656 25.0174 3.22458 25.7754C3.98261 26.5334 4.89159 27.1236 5.8925 27.5075C6.99243 27.9215 8.15496 28.1447 9.33 28.1675C10.705 28.1675 11.1037 28.25 14.5 28.25C17.8963 28.25 18.3363 28.25 19.67 28.1675C20.845 28.1447 22.0076 27.9215 23.1075 27.5075C24.1084 27.1236 25.0174 26.5334 25.7754 25.7754C26.5334 25.0174 27.1236 24.1084 27.5075 23.1075C27.9215 22.0076 28.1447 20.845 28.1675 19.67C28.1675 18.295 28.25 17.8825 28.25 14.5C28.25 11.1175 28.25 10.6775 28.1675 9.33ZM25.4175 19.5463C25.3934 20.4188 25.231 21.2821 24.9363 22.1038C24.6926 22.7532 24.3074 23.3403 23.8088 23.8225C23.3295 24.3214 22.7412 24.7026 22.09 24.9363C21.2664 25.243 20.3974 25.4103 19.5187 25.4313C18.2262 25.4313 17.8275 25.5 14.4862 25.5C11.145 25.5 10.76 25.5 9.4675 25.5C8.59028 25.4774 7.72228 25.3149 6.89625 25.0187C6.24678 24.7751 5.65967 24.3899 5.1775 23.8912C4.67859 23.412 4.29739 22.8237 4.06375 22.1725C3.75823 21.3533 3.59095 20.489 3.56875 19.615C3.56875 18.24 3.56875 17.8963 3.56875 14.5688C3.56875 11.2413 3.56875 10.8425 3.56875 9.5225C3.59245 8.64416 3.75966 7.77561 4.06375 6.95125C4.30102 6.30587 4.68186 5.72285 5.1775 5.24625C5.65679 4.74734 6.24506 4.36614 6.89625 4.1325C7.71986 3.82573 8.58886 3.65844 9.4675 3.6375C10.76 3.5 11.1587 3.5 14.5 3.5C17.8413 3.5 18.24 3.5 19.5325 3.5C20.4154 3.52245 21.2887 3.68967 22.1175 3.995C22.7629 4.23227 23.3459 4.61311 23.8225 5.10875C24.3214 5.58804 24.7026 6.17631 24.9363 6.8275C25.2728 7.66427 25.4635 8.55255 25.5 9.45375C25.5 10.8287 25.5687 11.1725 25.5687 14.5C25.5687 17.8275 25.5 18.2263 25.5 19.5463H25.4175Z" fill="#FBDAA8"/>
</svg>
