<svg width="173" height="34" viewBox="0 0 173 34" fill="none" xmlns="http://www.w3.org/2000/svg">
<path d="M35.9057 16.054C35.9057 30.3305 27.3373 32.1079 17.9528 32.1079C8.5684 32.1079 0 30.2732 0 16.054C0 1.72007 8.5684 0 17.9528 0C27.3373 0 35.9057 1.72007 35.9057 16.054ZM25.8801 16.054C25.8801 8.42833 21.7999 7.16695 17.9528 7.16695C14.1058 7.16695 10.0256 8.37099 10.0256 16.054C10.0256 23.6796 14.1058 24.941 17.9528 24.941C21.7999 24.8836 25.8801 23.6223 25.8801 16.054Z" fill="white"/>
<path d="M71.0536 8.14161V11.9258C71.0536 13.4165 70.7039 14.9072 69.8879 16.1686C68.4889 18.3473 66.0408 19.6087 63.4761 19.6087H49.3703V25.8583C49.3703 28.8971 46.8639 31.3625 43.7746 31.3625H39.3447V0.687988H63.4761C64.2339 0.687988 65.0499 0.802659 65.7494 1.032C68.897 2.00671 71.0536 4.87349 71.0536 8.14161ZM59.2794 12.4418C59.2794 12.4418 61.028 12.4418 61.028 10.1484C61.028 7.85494 59.2794 7.85494 59.2794 7.85494H49.3703V12.4418H59.2794Z" fill="white"/>
<path d="M173 0.687988V31.4199H162.974V16.7993L157.379 28.6678L157.262 28.8971C156.563 30.3878 155.047 31.3625 153.357 31.3625C151.666 31.3625 150.151 30.3878 149.451 28.8971L149.335 28.6678L143.739 16.8566V31.4199H133.714V0.687988H140.125C142.573 0.687988 144.847 2.12138 145.896 4.30013L153.415 20.1821L160.934 4.30013C161.984 2.12138 164.198 0.687988 166.705 0.687988H173V0.687988Z" fill="white"/>
<path d="M104.045 19.7234C104.628 19.8381 105.211 20.0674 105.793 20.1248C106.085 20.1821 106.435 20.2394 106.726 20.2968C107.95 20.8128 107.717 22.4755 109.232 23.0489C110.34 23.4502 111.331 23.1062 111.331 23.1062L111.273 22.9915C111.331 23.1635 111.447 23.2782 111.506 23.4502C111.622 23.6796 112.263 23.6222 112.671 23.6796C112.788 22.5328 113.371 20.9275 112.846 20.2394C112.089 19.3221 110.515 18.6914 109.232 18.634C107.542 18.5194 105.793 19.0354 104.103 19.3221C104.103 19.4367 104.045 19.6087 104.045 19.7234ZM106.726 20.2968C106.959 20.3541 107.251 20.4114 107.484 20.4688L106.726 20.2968ZM110.981 22.5328C110.806 22.6475 109.932 23.0489 109.582 22.5328C108.883 21.5581 107.542 20.4114 107.542 20.4114C108.883 20.8128 110.165 21.3288 110.981 22.5328Z" fill="white"/>
<path d="M110.515 25.801C108.824 24.4823 107.251 23.2783 105.677 22.0742C106.668 24.941 109.232 27.5211 110.515 25.801Z" fill="white"/>
<path d="M110.282 14.7924C110.981 14.6777 111.681 14.5057 112.38 14.3337C112.438 14.1617 112.497 14.047 112.613 13.875C112.089 13.6457 111.564 13.2443 110.981 13.187C110.573 13.187 110.107 13.5884 109.699 13.875C109.582 13.9897 109.524 14.3911 109.641 14.5631C109.757 14.7351 110.107 14.8497 110.282 14.7924Z" fill="white"/>
<path d="M105.385 0.687988H93.7278C93.7278 0.687988 93.7278 14.0472 94.1941 15.3659C96.1176 14.0472 98.1577 12.9005 100.081 11.5817C104.395 8.65763 105.852 5.27484 105.385 0.687988Z" fill="white"/>
<path d="M123.455 0.687951C123.455 1.54798 123.455 2.29335 123.513 2.6947C123.63 4.07075 123.338 5.4468 123.163 7.10954C120.249 4.01341 118.675 4.01341 116.635 6.99486C115.411 8.71493 114.886 10.779 116.111 12.7858C116.927 14.1045 116.111 14.7925 115.353 15.4805C115.061 15.7672 114.42 15.6525 114.129 15.8819C113.779 16.1686 113.721 16.6846 113.488 17.1433C113.896 17.0859 114.304 16.9713 114.712 16.8566C114.828 16.7992 114.945 16.7419 115.353 16.5699C115.178 17.4299 115.061 18.0606 114.945 18.7487C116.344 19.2647 116.635 18.4046 116.868 17.3726C117.043 16.2832 117.335 15.2512 117.626 13.7605C118.326 14.5058 118.967 14.8498 119.025 15.2512C119.375 18.5193 119.083 21.6728 116.344 23.9662C113.488 26.317 110.515 28.4957 107.484 30.7318C105.677 32.0505 103.054 31.8785 101.247 30.4451C100.548 29.9291 99.7898 29.4131 99.0903 28.8971C100.956 31.4198 103.462 33.2546 106.843 33.6559C122.581 35.892 127.652 23.7942 128.759 13.6458C129.225 10.4923 129.342 0.630615 129.342 0.630615H123.455V0.687951ZM120.016 12.9578C118.792 12.2124 117.801 11.2377 116.927 10.5497C116.985 8.08424 117.917 6.53618 119.025 6.59352C120.132 6.59352 122.464 9.17362 122.406 10.3777C122.406 11.123 120.54 13.2444 120.016 12.9578Z" fill="white"/>
<path d="M74.0846 0.687988V7.22424V8.77231V25.801L75.0172 25.1703C76.4744 24.1956 78.0482 23.2782 79.5054 22.3035C82.653 20.1248 84.0519 17.6593 84.1102 14.5059V0.745324H74.0846V0.687988Z" fill="white"/>
<path d="M79.7969 24.8836C78.2231 25.9156 76.591 26.8903 75.0755 27.9223L74.0846 28.6104V31.4198H84.1102V20.4114C83.4107 22.3035 82.0118 23.3928 79.7969 24.8836Z" fill="white"/>
</svg>
