<svg width="73" height="81" viewBox="0 0 73 81" fill="none" xmlns="http://www.w3.org/2000/svg">
<path d="M1.13602 16.2252L1.13692 16.2175L1.13771 16.2099C1.44714 13.2139 2.26514 10.4661 3.95142 8.01908C6.37927 4.50433 9.80675 2.43763 14.0381 1.56259L14.0385 1.56252C17.4432 0.857263 20.7651 0.719948 24.0371 1.7169C26.6736 2.52021 29.0164 3.91737 31.25 5.61074L31.2508 5.61134C32.3022 6.40686 33.3176 7.23943 34.3374 8.07557C34.8472 8.49362 35.3582 8.91255 35.8752 9.32821L36.5034 9.83317L37.1303 9.32658C37.5532 8.98485 37.9735 8.64258 38.3933 8.3008C39.5313 7.37421 40.6648 6.45129 41.8311 5.55304L41.8369 5.54852C46.8087 1.66077 52.322 0.158284 58.5697 1.45587C62.9915 2.38961 66.565 4.38217 69.0683 8.0344L69.0702 8.03707C70.6526 10.3298 71.4534 12.9257 71.8149 15.756L71.8157 15.7615C72.2929 19.3396 71.8505 22.7479 70.4072 26.0613C68.6357 30.0973 65.9065 33.4971 62.6948 36.5732L62.694 36.574C56.8086 42.2242 50.8963 47.8555 44.9878 53.4833C42.6607 55.6997 40.3343 57.9156 38.0103 60.1319L38.0091 60.133C37.2791 60.8316 36.82 60.9985 36.5075 60.9995C36.1956 61.0005 35.7387 60.8371 35.0104 60.1489C26.8948 52.4134 18.7811 44.6798 10.7035 36.911C9.38589 35.641 8.12092 34.3014 6.92634 32.9097C4.15996 29.6736 2.19252 26.0368 1.30196 21.9095C1.20094 21.3759 1.10043 20.845 1 20.2997V20.2979V20.2913V20.2846V20.278V20.2714V20.2647V20.2581V20.2514V20.2448V20.2382V20.2315V20.2249V20.2183V20.2116V20.205V20.1983V20.1917V20.1851V20.1784V20.1718V20.1652V20.1585V20.1519V20.1452V20.1386V20.132V20.1253V20.1187V20.1121V20.1054V20.0988V20.0921V20.0855V20.0789V20.0722V20.0656V20.059V20.0523V20.0457V20.0391V20.0324V20.0258V20.0191V20.0125V20.0059V19.9992V19.9926V19.986V19.9793V19.9727V19.9661V19.9594V19.9528V19.9461V19.9395V19.9329V19.9262V19.9196V19.913V19.9063V19.8997V19.8931V19.8864V19.8798V19.8731V19.8665V19.8599V19.8532V19.8466V19.84V19.8333V19.8267V19.8201V19.8134V19.8068V19.8002V19.7935V19.7869V19.7803V19.7736V19.767V19.7604V19.7537V19.7471V19.7404V19.7338V19.7272V19.7205V19.7139V19.7073V19.7006V19.694V19.6874V19.6807V19.6741V19.6675V19.6608V19.6542V19.6476V19.6409V19.6343V19.6277V19.621V19.6144V19.6078V19.6012V19.5945V19.5879V19.5813V19.5746V19.568V19.5614V19.5547V19.5481V19.5415V19.5348V19.5282V19.5216V19.5149V19.5083V19.5017V19.495V19.4884V19.4818V19.4752V19.4685V19.4619V19.4553V19.4486V19.442V19.4354V19.4287V19.4221V19.4155V19.4089V19.4022V19.3956V19.389V19.3823V19.3757V19.3691V19.3625V19.3558V19.3492V19.3426V19.3359V19.3293V19.3227V19.3161V19.3094V19.3028V19.2962V19.2896V19.2829V19.2763V19.2697V19.263V19.2564V19.2498V19.2432V19.2365V19.2299V19.2233V19.2167V19.21V19.2034V19.1968V19.1902V19.1835V19.1769V19.1703V19.1637V19.157V19.1504V19.1438V19.1372V19.1305V19.1239V19.1173V19.1107V19.104V19.0974V19.0908V19.0842V19.0776V19.0709V19.0643V19.0577V19.0511V19.0444V19.0378V19.0312V19.0246V19.018V19.0113V19.0047V18.9981V18.9915V18.9849V18.9782V18.9716V18.965V18.9584V18.9518V18.9451V18.9385V18.9319V18.9253V18.9187V18.9121V18.9054V18.8988V18.8922V18.8856V18.879V18.8723V18.8657V18.8591V18.8525V18.8459V18.8393V18.8326V18.826V18.8194V18.8128V18.8062V18.7996V18.793V18.7863V18.7797V18.7731V18.7665V18.7599V18.7533V18.7467V18.74V18.7334V18.7268V18.7202V18.7136V18.707V18.7004V18.6937V18.6871V18.6805V18.6739V18.6673V18.6607V18.6541V18.6475V18.6409V18.6342V18.6276V18.621V18.6144V18.6078V18.6012V18.5946V18.588V18.5814V18.5748V18.5682V18.5616V18.5549V18.5483V18.5417V18.5351V18.5285V18.5219V18.5153V18.5087V18.5021V18.4955V18.4889V18.4823V18.4757V18.4691V18.4625V18.4559V18.4493V18.4426V18.436V18.4294V18.4228V18.4162V18.4096V18.403V18.3964V18.3898V18.3832V18.3766V18.37V18.3634V18.3568V18.3502V18.3436V18.337V18.3304V18.3238V18.3172V18.3106V18.304V18.2974V18.2908V18.2842V18.2776V18.271V18.2644V18.2578V18.2512V18.2446V18.238V18.2315V18.2249V18.2183V18.2117V18.2051V18.1985V18.1919V18.1853V18.1787V18.1721V18.1655V18.1589V18.1523V18.1457V18.1391V18.1325V18.126V18.1194V18.1128V18.1062V18.0996V18.093V18.0864V18.0798V18.0732V18.0666V18.06V18.0535V18.0469V18.0403V18.0337V18.0271V18.0205V18.0139V18.0073V18.0008V17.9942V17.9876V17.981V17.9744V17.9678V17.9612V17.9547V17.9481V17.9415V17.9349V17.9283V17.9217V17.9152V17.9086V17.902V17.8954V17.8888V17.8823V17.8757V17.8691V17.8625V17.8559V17.8494V17.8428V17.8362V17.8296V17.823V17.8165V17.8099V17.8033V17.7967V17.7901V17.7836V17.777V17.7704V17.7638V17.7573V17.7507V17.7441V17.7375V17.731V17.7244V17.7178V17.7112V17.7047V17.6981V17.6915V17.685V17.6784V17.6718V17.6652V17.6587V17.6521V17.6455V17.639V17.6324V17.6258V17.6193V17.6127V17.6061V17.5996V17.593V17.5864V17.5799V17.5733V17.5667V17.5602V17.5536V17.547V17.5405V17.5339V17.5273V17.5208V17.5142V17.5076V17.5011V17.4945V17.488V17.4814V17.4748V17.4683V17.4617V17.4552V17.4486V17.442V17.4355V17.4289V17.4224V17.4158V17.4092V17.4027V17.3961V17.3896V17.383V17.3765V17.3699V17.3633V17.3568V17.3502V17.3437V17.3371V17.3306V17.324V17.3175V17.3109V17.3044V17.2978V17.2913V17.2847V17.2782V17.2716V17.2651V17.2585V17.252V17.2454V17.2389V17.2323V17.2258V17.2192V17.2127V17.2061V17.1996V17.193V17.1865V17.18V17.1734V17.1669V17.1603V17.1538V17.1472V17.1407V17.1342V17.1276V17.1211V17.1145V17.108V17.1014V17.0983C1.04851 16.8254 1.10012 16.5273 1.13602 16.2252ZM38.7004 60.8556C37.1095 62.3779 35.9119 62.3779 34.3209 60.8733C26.2055 53.1379 18.09 45.4025 10.0103 37.6317L38.7004 60.8556Z" fill="#D8A65D" stroke="#D8A65D" stroke-width="2"/>
<circle cx="36" cy="73" r="8" fill="#D8A65D"/>
</svg>
