<svg width="53" height="50" viewBox="0 0 53 50" fill="none" xmlns="http://www.w3.org/2000/svg">
<path d="M28.5303 26.0303C28.8232 25.7374 28.8232 25.2625 28.5303 24.9696L23.7574 20.1966C23.4645 19.9037 22.9896 19.9037 22.6967 20.1966C22.4038 20.4895 22.4038 20.9644 22.6967 21.2573L26.9393 25.4999L22.6967 29.7426C22.4038 30.0355 22.4038 30.5103 22.6967 30.8032C22.9896 31.0961 23.4645 31.0961 23.7574 30.8032L28.5303 26.0303ZM0.5 26.2499H28V24.7499H0.5V26.2499Z" fill="#D8A65D"/>
<path d="M14.4296 36.1113C16.8177 38.8801 20.0131 40.8313 23.567 41.691C27.1209 42.5507 30.8549 42.2756 34.2444 40.9043C37.634 39.5331 40.5089 37.1345 42.4654 34.0456C44.4219 30.9567 45.3617 27.3325 45.1529 23.6821C44.9441 20.0316 43.5971 16.5383 41.301 13.6926C39.005 10.847 35.8754 8.79195 32.3515 7.8162C28.8277 6.84044 25.0868 6.99295 21.6541 8.25231C18.2214 9.51166 15.2694 11.8146 13.2126 14.8377" stroke="#D8A65D" stroke-width="2"/>
</svg>
