<svg width="20" height="20" viewBox="0 0 20 20" fill="none" xmlns="http://www.w3.org/2000/svg">
<path d="M3.51648 0C3.90257 0.0991712 4.1791 0.354928 4.45562 0.631564C5.4052 1.59196 6.36 2.53669 7.30958 3.49187C7.9148 4.10255 7.92002 4.82807 7.31479 5.43354C7.05392 5.69451 6.78783 5.95549 6.52696 6.22168C5.90086 6.86369 5.78086 7.73535 6.20347 8.5235C7.43479 10.8097 9.1983 12.5686 11.4783 13.8004C12.2609 14.2232 13.1375 14.098 13.7792 13.4716C14.061 13.2002 14.3323 12.9183 14.6088 12.6417C15.1566 12.1041 15.908 12.0989 16.4506 12.6417C17.5045 13.6856 18.5532 14.74 19.5967 15.7891C20.1237 16.3163 20.1341 17.0522 19.628 17.5898C19.2367 18.0074 18.8297 18.4145 18.4384 18.8269C17.6819 19.615 16.7375 19.9543 15.6732 19.996C14.5097 20.0378 13.4036 19.7455 12.334 19.3123C10.6174 18.6233 9.07829 17.6316 7.64349 16.4729C5.36346 14.6304 3.39648 12.5008 1.86254 9.99019C1.07471 8.70096 0.438175 7.3491 0.14078 5.85632C0.0886053 5.5849 0.0468656 5.30827 -9.15527e-05 5.03685C-9.15527e-05 4.71324 -9.15527e-05 4.38441 -9.15527e-05 4.0608C0.0155608 3.99816 0.0312132 3.93553 0.0416482 3.87289C0.156432 3.06909 0.42774 2.33313 1.00166 1.74332C1.38775 1.34664 1.79472 0.970833 2.18081 0.579368C2.44168 0.318392 2.71821 0.0887321 3.08343 0C3.22952 0 3.37039 0 3.51648 0Z" fill="black"/>
</svg>
