<svg width="29" height="29" viewBox="0 0 29 29" fill="none" xmlns="http://www.w3.org/2000/svg">
<path d="M14.4922 0.75C11.7727 0.75 9.11428 1.55642 6.8531 3.06729C4.59193 4.57816 2.82956 6.72562 1.78885 9.2381C0.748145 11.7506 0.475849 14.5153 1.0064 17.1825C1.53694 19.8497 2.8465 22.2997 4.76948 24.2227C6.69245 26.1457 9.14246 27.4553 11.8097 27.9858C14.4769 28.5163 17.2416 28.244 19.7541 27.2033C22.2666 26.1626 24.414 24.4003 25.9249 22.1391C27.4358 19.8779 28.2422 17.2195 28.2422 14.5C28.2423 12.6943 27.8868 10.9062 27.1958 9.23793C26.5049 7.56963 25.4921 6.05378 24.2152 4.77695C22.9384 3.50011 21.4226 2.4873 19.7543 1.79635C18.086 1.1054 16.2979 0.74985 14.4922 0.75V0.75ZM18.864 21.5846C18.8126 21.713 18.7342 21.8288 18.6343 21.9244C18.5345 22.02 18.4153 22.0931 18.2848 22.1389C18.1543 22.1847 18.0156 22.202 17.8779 22.1898C17.7401 22.1775 17.6066 22.136 17.4863 22.068L13.7536 19.1676L11.3579 21.3778C11.3023 21.4188 11.2373 21.4453 11.1688 21.4546C11.1003 21.464 11.0306 21.4559 10.966 21.4313L11.4253 17.3222L11.44 17.3338L11.4494 17.2527C11.4494 17.2527 18.1662 11.1374 18.4399 10.8768C18.7169 10.6169 18.6255 10.5606 18.6255 10.5606C18.6413 10.2436 18.1284 10.5606 18.1284 10.5606L9.22869 16.2861L5.5224 15.0239C5.5224 15.0239 4.95314 14.8197 4.89952 14.3708C4.84314 13.9253 5.54094 13.6833 5.54094 13.6833L20.2768 7.82917C20.2768 7.82917 21.4882 7.28946 21.4882 8.18325L18.864 21.5846Z" fill="#FBDAA8"/>
</svg>
