<svg width="26" height="26" viewBox="0 0 26 26" fill="none" xmlns="http://www.w3.org/2000/svg">
<path d="M13.5624 25.4557C13.0297 25.4557 12.4971 25.4557 11.9645 25.4557C11.6515 25.4158 11.3386 25.3826 11.0323 25.3428C8.66873 25.0041 6.55148 24.101 4.7072 22.5869C2.27702 20.5881 0.765643 18.0447 0.199711 14.9502C0.113156 14.4787 0.0665498 14.0006 -3.05176e-05 13.5291C-3.05176e-05 12.9978 -3.05176e-05 12.4666 -3.05176e-05 11.9353C0.0132856 11.8556 0.0332597 11.776 0.0465757 11.6963C0.126472 11.165 0.16642 10.6271 0.279607 10.1025C1.01199 6.76227 2.803 4.11266 5.63267 2.19351C8.41573 0.30093 11.5117 -0.349852 14.8341 0.174758C17.231 0.553274 19.3482 1.55601 21.1592 3.16304C23.9423 5.63336 25.4137 8.74782 25.5202 12.4666C25.5868 14.8705 25.0009 17.1349 23.7492 19.1935C21.7318 22.5072 18.7956 24.5393 14.9672 25.2631C14.4945 25.3494 14.0284 25.3959 13.5624 25.4557ZM23.8224 12.7388C23.8357 6.6693 18.8622 1.7021 12.7634 1.69546C6.68464 1.69546 1.7244 6.62946 1.69777 12.7056C1.67114 18.7685 6.63803 23.7424 12.7434 23.7623C18.8289 23.7822 23.8091 18.8217 23.8224 12.7388Z" fill="#FBDAA8"/>
<path d="M11.9112 9.33241C11.9112 8.2035 11.9112 7.08123 11.9112 5.95232C11.9112 5.50076 12.2242 5.16209 12.6636 5.10896C13.0764 5.05584 13.4759 5.3281 13.5757 5.74646C13.6024 5.85935 13.6024 5.97889 13.6024 6.09178C13.6024 8.09061 13.609 10.0828 13.5957 12.0816C13.5957 12.2676 13.6556 12.3805 13.8021 12.4934C15.0405 13.4695 16.2656 14.459 17.504 15.4418C17.7903 15.6742 17.9101 15.9664 17.8369 16.3184C17.777 16.6238 17.5772 16.8363 17.2776 16.9359C16.9514 17.0422 16.6651 16.9492 16.3987 16.7367C15.6331 16.1191 14.8541 15.5016 14.0884 14.8906C13.4892 14.4125 12.8966 13.9344 12.2974 13.4629C12.0311 13.2504 11.9046 12.9914 11.9046 12.6461C11.9179 11.5305 11.9112 10.4281 11.9112 9.33241Z" fill="#FBDAA8"/>
</svg>
