<svg width="42" height="42" viewBox="0 0 42 42" fill="none" xmlns="http://www.w3.org/2000/svg">
<path fill-rule="evenodd" clip-rule="evenodd" d="M21.0311 3.50452C17.1304 3.41494 13.316 4.65905 10.2182 7.03121C7.12046 9.40337 4.9249 12.7615 3.99442 16.5507C3.06395 20.3398 3.45428 24.333 5.10088 27.8702C6.74749 31.4074 9.5518 34.2768 13.0503 36.0042C16.5487 37.7316 20.5319 38.2135 24.3414 37.3703C28.1509 36.527 31.5586 34.4091 34.0012 31.3667C36.4439 28.3242 37.7752 24.5393 37.7752 20.6376H41.2752C41.2752 25.3362 39.672 29.894 36.7305 33.5579C33.7889 37.2217 29.6853 39.7721 25.0978 40.7875C20.5103 41.803 15.7137 41.2227 11.5007 39.1425C7.28777 37.0623 3.91074 33.6068 1.92784 29.3472C-0.0550541 25.0876 -0.525098 20.2789 0.595406 15.716C1.71591 11.153 4.35988 7.109 8.09027 4.25238C11.8207 1.39576 16.4141 -0.102431 21.1114 0.00544366C25.7872 0.112825 30.2872 1.8052 33.8744 4.8042L37.3361 1.98365L36.6627 10.1316L28.5466 9.14528L31.1003 7.06452C28.214 4.83949 24.6872 3.58849 21.0311 3.50452ZM19.1176 23.9576H15.0576C16.5509 22.2243 17.5576 20.8843 18.0776 19.9376C18.5976 18.991 18.8576 18.091 18.8576 17.2376C18.8576 16.4376 18.6709 15.7176 18.2976 15.0776C17.9243 14.4376 17.3976 13.9443 16.7176 13.5976C16.0376 13.2376 15.2709 13.0576 14.4176 13.0576C13.0976 13.0576 12.0376 13.451 11.2376 14.2376C10.4376 15.0243 10.0376 16.0376 10.0376 17.2776V17.5576H12.8976V17.3176C12.8976 16.8376 13.0376 16.4576 13.3176 16.1776C13.6109 15.8843 13.9909 15.7376 14.4576 15.7376C14.9109 15.7376 15.2776 15.8776 15.5576 16.1576C15.8376 16.4376 15.9776 16.811 15.9776 17.2776C15.9776 17.7576 15.8309 18.271 15.5376 18.8176C15.2576 19.3643 14.7043 20.151 13.8776 21.1776C13.0643 22.191 11.7043 23.8043 9.7976 26.0176V26.6376H19.1176V23.9576ZM30.6546 24.0776V21.5976H29.4946V18.4176H27.3546L26.8946 21.5976H24.0946L27.6346 13.3376H24.8146L20.4346 23.5776V24.0776H26.8146V26.6376H29.4946V24.0776H30.6546Z" fill="#D8A65D"/>
</svg>
