<svg width="29" height="29" viewBox="0 0 29 29" fill="none" xmlns="http://www.w3.org/2000/svg">
<path d="M18.7253 0.75H10.2891C2.5833 0.75 0.75 2.5833 0.75 10.2747V18.7109C0.75 26.4166 2.56904 28.25 10.2747 28.25H18.7109C26.4167 28.25 28.25 26.431 28.25 18.7252V10.2891C28.25 2.5833 26.431 0.75 18.7253 0.75ZM22.9505 20.3724H20.9453C20.1862 20.3724 19.957 19.7565 18.5964 18.3958C17.4075 17.25 16.9062 17.1067 16.6055 17.1067C16.1901 17.1067 16.0755 17.2213 16.0755 17.7942V19.5989C16.0755 20.0859 15.918 20.3724 14.6433 20.3724C13.4063 20.2893 12.2068 19.9135 11.1435 19.276C10.0802 18.6385 9.1835 17.7576 8.52734 16.7057C6.96961 14.7668 5.88577 12.4912 5.36201 10.0599C5.36201 9.75908 5.47656 9.48693 6.04951 9.48693H8.05469C8.57031 9.48693 8.75654 9.71611 8.95703 10.2461C9.93096 13.1106 11.5925 15.6028 12.2656 15.6028C12.5234 15.6028 12.638 15.4883 12.638 14.8438V11.8932C12.5521 10.5469 11.8359 10.4322 11.8359 9.94531C11.8454 9.81684 11.9045 9.69711 12.0008 9.61152C12.097 9.52594 12.2229 9.48125 12.3516 9.48693H15.5026C15.9323 9.48693 16.0755 9.70177 16.0755 10.2174V14.1992C16.0755 14.6289 16.2617 14.7721 16.3906 14.7721C16.6484 14.7721 16.8489 14.6289 17.3216 14.1562C18.3373 12.9176 19.1672 11.5377 19.7852 10.0599C19.8482 9.88204 19.9678 9.72977 20.1256 9.62631C20.2833 9.52285 20.4707 9.47389 20.6589 9.48693H22.6641C23.2656 9.48693 23.3945 9.78771 23.2656 10.2174C22.536 11.8513 21.6333 13.4023 20.5729 14.8438C20.3581 15.1731 20.2722 15.345 20.5729 15.7317C20.7734 16.0325 21.4753 16.6197 21.9479 17.1783C22.6354 17.8641 23.2063 18.6575 23.638 19.5273C23.8099 20.0859 23.5234 20.3724 22.9505 20.3724V20.3724Z" fill="#FBDAA8"/>
</svg>
